<mxfile host="Electron" modified="2024-05-16T07:24:33.325Z" agent="Mozilla/5.0 (Windows NT 10.0; Win64; x64) AppleWebKit/537.36 (KHTML, like Gecko) draw.io/23.1.5 Chrome/120.0.6099.109 Electron/28.1.0 Safari/537.36" etag="q_pDixyEF7CUOjt9DuJK" version="23.1.5" type="device">
  <diagram name="Strona-1" id="tKh5jBK7ZMCCm5xY7gQM">
    <mxGraphModel dx="925" dy="617" grid="1" gridSize="10" guides="1" tooltips="1" connect="1" arrows="1" fold="1" page="1" pageScale="1" pageWidth="600" pageHeight="300" math="0" shadow="0">
      <root>
        <mxCell id="0" />
        <mxCell id="1" parent="0" />
        <mxCell id="GFYSmypETnpFk3FitQDg-45" style="edgeStyle=orthogonalEdgeStyle;rounded=0;orthogonalLoop=1;jettySize=auto;html=1;exitX=1;exitY=0.5;exitDx=0;exitDy=0;" parent="1" source="GFYSmypETnpFk3FitQDg-33" edge="1">
          <mxGeometry relative="1" as="geometry">
            <mxPoint x="230" y="90.14285714285711" as="targetPoint" />
          </mxGeometry>
        </mxCell>
        <mxCell id="GFYSmypETnpFk3FitQDg-33" value="&lt;font style=&quot;font-size: 18px;&quot;&gt;Preprocessing&lt;/font&gt;" style="rounded=0;whiteSpace=wrap;html=1;" parent="1" vertex="1">
          <mxGeometry x="72" y="60" width="120" height="60" as="geometry" />
        </mxCell>
        <mxCell id="GFYSmypETnpFk3FitQDg-46" style="edgeStyle=orthogonalEdgeStyle;rounded=0;orthogonalLoop=1;jettySize=auto;html=1;exitX=1;exitY=0.5;exitDx=0;exitDy=0;entryX=0;entryY=0.5;entryDx=0;entryDy=0;" parent="1" source="GFYSmypETnpFk3FitQDg-34" target="GFYSmypETnpFk3FitQDg-35" edge="1">
          <mxGeometry relative="1" as="geometry" />
        </mxCell>
        <mxCell id="GFYSmypETnpFk3FitQDg-34" value="&lt;font style=&quot;font-size: 18px;&quot;&gt;Feature measuring&lt;/font&gt;" style="rounded=0;whiteSpace=wrap;html=1;" parent="1" vertex="1">
          <mxGeometry x="232" y="60" width="120" height="60" as="geometry" />
        </mxCell>
        <mxCell id="GFYSmypETnpFk3FitQDg-52" value="&lt;i&gt;&lt;font style=&quot;font-size: 18px;&quot;&gt;decision&lt;/font&gt;&lt;/i&gt;" style="edgeStyle=orthogonalEdgeStyle;rounded=0;orthogonalLoop=1;jettySize=auto;html=1;exitX=1;exitY=0.5;exitDx=0;exitDy=0;" parent="1" source="GFYSmypETnpFk3FitQDg-35" edge="1">
          <mxGeometry x="0.328" y="20" relative="1" as="geometry">
            <mxPoint x="570" y="89.85714285714289" as="targetPoint" />
            <mxPoint as="offset" />
          </mxGeometry>
        </mxCell>
        <mxCell id="GFYSmypETnpFk3FitQDg-35" value="&lt;font style=&quot;font-size: 18px;&quot;&gt;Classification&lt;/font&gt;" style="rounded=0;whiteSpace=wrap;html=1;" parent="1" vertex="1">
          <mxGeometry x="392" y="60" width="120" height="60" as="geometry" />
        </mxCell>
        <mxCell id="GFYSmypETnpFk3FitQDg-41" style="edgeStyle=orthogonalEdgeStyle;rounded=0;orthogonalLoop=1;jettySize=auto;html=1;exitX=1;exitY=0.5;exitDx=0;exitDy=0;entryX=0;entryY=0.5;entryDx=0;entryDy=0;" parent="1" source="GFYSmypETnpFk3FitQDg-36" target="GFYSmypETnpFk3FitQDg-37" edge="1">
          <mxGeometry relative="1" as="geometry" />
        </mxCell>
        <mxCell id="GFYSmypETnpFk3FitQDg-36" value="&lt;font style=&quot;font-size: 18px;&quot;&gt;Preprocessing&lt;/font&gt;" style="rounded=0;whiteSpace=wrap;html=1;" parent="1" vertex="1">
          <mxGeometry x="72" y="170" width="120" height="60" as="geometry" />
        </mxCell>
        <mxCell id="GFYSmypETnpFk3FitQDg-43" style="edgeStyle=orthogonalEdgeStyle;rounded=0;orthogonalLoop=1;jettySize=auto;html=1;exitX=1;exitY=0.5;exitDx=0;exitDy=0;" parent="1" source="GFYSmypETnpFk3FitQDg-37" edge="1">
          <mxGeometry relative="1" as="geometry">
            <mxPoint x="390" y="199.8571428571429" as="targetPoint" />
          </mxGeometry>
        </mxCell>
        <mxCell id="GFYSmypETnpFk3FitQDg-47" style="edgeStyle=orthogonalEdgeStyle;rounded=0;orthogonalLoop=1;jettySize=auto;html=1;exitX=0.5;exitY=0;exitDx=0;exitDy=0;dashed=1;dashPattern=8 8;" parent="1" source="GFYSmypETnpFk3FitQDg-37" target="GFYSmypETnpFk3FitQDg-34" edge="1">
          <mxGeometry relative="1" as="geometry" />
        </mxCell>
        <mxCell id="GFYSmypETnpFk3FitQDg-37" value="&lt;font style=&quot;font-size: 18px;&quot;&gt;Feature extraction/&lt;br&gt;selection&lt;/font&gt;" style="rounded=0;whiteSpace=wrap;html=1;" parent="1" vertex="1">
          <mxGeometry x="232" y="170" width="120" height="60" as="geometry" />
        </mxCell>
        <mxCell id="GFYSmypETnpFk3FitQDg-44" style="edgeStyle=orthogonalEdgeStyle;rounded=0;orthogonalLoop=1;jettySize=auto;html=1;exitX=0.5;exitY=0;exitDx=0;exitDy=0;dashed=1;dashPattern=8 8;" parent="1" source="GFYSmypETnpFk3FitQDg-38" target="GFYSmypETnpFk3FitQDg-35" edge="1">
          <mxGeometry relative="1" as="geometry" />
        </mxCell>
        <mxCell id="GFYSmypETnpFk3FitQDg-53" style="edgeStyle=orthogonalEdgeStyle;rounded=0;orthogonalLoop=1;jettySize=auto;html=1;exitX=0.5;exitY=1;exitDx=0;exitDy=0;entryX=0.5;entryY=1;entryDx=0;entryDy=0;" parent="1" source="GFYSmypETnpFk3FitQDg-38" target="GFYSmypETnpFk3FitQDg-36" edge="1">
          <mxGeometry relative="1" as="geometry">
            <mxPoint x="130" y="320" as="targetPoint" />
            <Array as="points">
              <mxPoint x="452" y="260" />
              <mxPoint x="132" y="260" />
            </Array>
          </mxGeometry>
        </mxCell>
        <mxCell id="GFYSmypETnpFk3FitQDg-38" value="&lt;font style=&quot;font-size: 18px;&quot;&gt;Learning&lt;/font&gt;" style="rounded=0;whiteSpace=wrap;html=1;" parent="1" vertex="1">
          <mxGeometry x="392" y="170" width="120" height="60" as="geometry" />
        </mxCell>
        <mxCell id="GFYSmypETnpFk3FitQDg-39" value="&lt;i style=&quot;font-size: 18px;&quot;&gt;test &lt;br&gt;pattern&lt;/i&gt;" style="endArrow=classic;html=1;rounded=0;" parent="1" target="GFYSmypETnpFk3FitQDg-33" edge="1">
          <mxGeometry x="-0.0323" y="30" width="50" height="50" relative="1" as="geometry">
            <mxPoint x="10" y="90" as="sourcePoint" />
            <mxPoint x="280" y="180" as="targetPoint" />
            <mxPoint as="offset" />
          </mxGeometry>
        </mxCell>
        <mxCell id="GFYSmypETnpFk3FitQDg-40" value="&lt;i style=&quot;font-size: 18px;&quot;&gt;training &lt;br&gt;pattern&lt;/i&gt;" style="endArrow=classic;html=1;rounded=0;" parent="1" edge="1">
          <mxGeometry x="-0.0323" y="-40" width="50" height="50" relative="1" as="geometry">
            <mxPoint x="10" y="199.70999999999998" as="sourcePoint" />
            <mxPoint x="72" y="199.70999999999998" as="targetPoint" />
            <mxPoint as="offset" />
          </mxGeometry>
        </mxCell>
        <mxCell id="GFYSmypETnpFk3FitQDg-48" value="&lt;font style=&quot;font-size: 16px;&quot;&gt;Classification&lt;/font&gt;" style="endArrow=none;html=1;rounded=0;dashed=1;dashPattern=1 1;" parent="1" edge="1">
          <mxGeometry x="0.0175" y="120" width="50" height="50" relative="1" as="geometry">
            <mxPoint y="140" as="sourcePoint" />
            <mxPoint x="570" y="140" as="targetPoint" />
            <mxPoint as="offset" />
          </mxGeometry>
        </mxCell>
        <mxCell id="GFYSmypETnpFk3FitQDg-50" value="&lt;font style=&quot;font-size: 16px;&quot;&gt;Training&lt;/font&gt;" style="text;html=1;align=center;verticalAlign=middle;whiteSpace=wrap;rounded=0;" parent="1" vertex="1">
          <mxGeometry x="270" y="270" width="60" height="30" as="geometry" />
        </mxCell>
        <mxCell id="GFYSmypETnpFk3FitQDg-55" value="" style="endArrow=classic;html=1;rounded=0;entryX=0.5;entryY=1;entryDx=0;entryDy=0;" parent="1" target="GFYSmypETnpFk3FitQDg-37" edge="1">
          <mxGeometry width="50" height="50" relative="1" as="geometry">
            <mxPoint x="292" y="260" as="sourcePoint" />
            <mxPoint x="280" y="130" as="targetPoint" />
          </mxGeometry>
        </mxCell>
      </root>
    </mxGraphModel>
  </diagram>
</mxfile>
